{"title":"French.Cancan.1954.720p.BluRay.x264-CiNEFiLE.mkv","uid":5832315,"size":4695585927,"categoryP":"video","categoryS":"hd___movies","magnet":"?xt=urn:btih:d61ec83e39d6e634676905555308f3e61b175430&amp;dn=French.Cancan.1954.720p.BluRay.x264-CiNEFiLE.mkv&amp;tr=udp%3A%2F%2Ftracker.openbittorrent.com%3A80&amp;tr=udp%3A%2F%2Fopen.demonii.com%3A1337&amp;tr=udp%3A%2F%2Ftracker.coppersurfer.tk%3A6969&amp;tr=udp%3A%2F%2Fexodus.desync.com%3A6969","seeders":0,"leechers":0,"uploader":"mfccorrea","files":2,"time":1284565878,"description":"Beautifully photographed, this comedy drama from Jean Renoir  chronicles the revival of Paris' most notorious dance as it tells the story of a theater producer who turns a humble washerwoman into a star at the Moulin Rouge. The film is also title Only the French Can.\n\n   General\n      Complete name : French.Cancan.1954.720p.BluRay.x264-CiNEFiLE.mkv\n      Format : Matroska\n      File size : 4.37 GiB\n      Duration : 1h 43mn\n      Overall bit rate : 6 040 Kbps\n      Encoded date : UTC 2010-08-31 17:16:36\n      Writing application : mkvmerge v4.1.1 ('Bouncin' Back') built on Jul  3 2010 22:54:08\n      Writing library : libebml v1.0.0 + libmatroska v1.0.0\n   Video #1\n      ID : 1\n      Format : AVC\n      Format/Info : Advanced Video Codec\n      Format profile : &lt;a class=&quot;__cf_email__&quot; href=&quot;/cdn-cgi/l/email-protection&quot; data-cfemail=&quot;2068494748606c140e11&quot;&gt;[email&amp;#160;protected]&lt;/a&gt;&lt;script data-cfhash='f9e31' type=&quot;text/javascript&quot;&gt;\n/* &lt;![CDATA[ */!function(){try{var t=&quot;currentScript&quot;in document?document.currentScript:function(){for(var t=document.getElementsByTagName(&quot;script&quot;),e=t.length;e--;)if(t[e].getAttribute(&quot;data-cfhash&quot;))return t[e]}();if(t&amp;&amp;t.previousSibling){var e,r,n,i,c=t.previousSibling,a=c.getAttribute(&quot;data-cfemail&quot;);if(a){for(e=&quot;&quot;,r=parseInt(a.substr(0,2),16),n=2;a.length-n;n+=2)i=parseInt(a.substr(n,2),16)^r,e+=String.fromCharCode(i);e=document.createTextNode(e),c.parentNode.replaceChild(e,c)}t.parentNode.removeChild(t);}}catch(u){}}()/* ]]&gt; */&lt;/script&gt;\n      Format settings, CABAC : Yes\n      Format settings, ReFrames : 5 frames\n      Muxing mode : Container profile=&lt;a class=&quot;__cf_email__&quot; href=&quot;/cdn-cgi/l/email-protection&quot; data-cfemail=&quot;40152e2b2e2f372e00746e71&quot;&gt;[email&amp;#160;protected]&lt;/a&gt;&lt;script data-cfhash='f9e31' type=&quot;text/javascript&quot;&gt;\n/* &lt;![CDATA[ */!function(){try{var t=&quot;currentScript&quot;in document?document.currentScript:function(){for(var t=document.getElementsByTagName(&quot;script&quot;),e=t.length;e--;)if(t[e].getAttribute(&quot;data-cfhash&quot;))return t[e]}();if(t&amp;&amp;t.previousSibling){var e,r,n,i,c=t.previousSibling,a=c.getAttribute(&quot;data-cfemail&quot;);if(a){for(e=&quot;&quot;,r=parseInt(a.substr(0,2),16),n=2;a.length-n;n+=2)i=parseInt(a.substr(n,2),16)^r,e+=String.fromCharCode(i);e=document.createTextNode(e),c.parentNode.replaceChild(e,c)}t.parentNode.removeChild(t);}}catch(u){}}()/* ]]&gt; */&lt;/script&gt;\n      Codec ID : V_MPEG4/ISO/AVC\n      Duration : 1h 43mn\n      Bit rate : 5 165 Kbps\n      Nominal bit rate : 5 269 Kbps\n      Width : 960 pixels\n      Height : 720 pixels\n      Display aspect ratio : 4:3\n      Frame rate : 24.000 fps\n      Resolution : 24 bits\n      Colorimetry : 4:2:0\n      Scan type : Progressive\n      Bits/(Pixel*Frame) : 0.311\n      Stream size : 3.74 GiB (86%)\n      Writing library : x264 core 104 r1703 cd21d05\n      Language : French\n   Audio #2\n      ID : 2\n      Format : DTS\n      Format/Info : Digital Theater Systems\n      Codec ID : A_DTS\n      Duration : 1h 43mn\n      Bit rate mode : Constant\n      Bit rate : 755 Kbps\n      Channel(s) : 1 channel\n      Channel positions : Mono\n      Sampling rate : 48.0 KHz\n      Resolution : 24 bits\n      Stream size : 559 MiB (12%)\n      Language : French\n   Text #3\n      ID : 3\n      Format : UTF-8\n      Codec ID : S_TEXT/UTF8\n      Codec ID/Info : UTF-8 Plain Text\n &lt;a href=&quot;\nhttp://www.imdb.com/title/tt0046998/&quot; rel=&quot;nofollow&quot; target=&quot;_NEW&quot;&gt;\nhttp://www.imdb.com/title/tt0046998/&lt;/a&gt;\n\nFrench audio; English subtitle in the mkv, Portuguese srt subtitle\n\nFrench.Cancan.1954.720p.BluRay.x264-CiNEFiLE","torrent":{"xt":"urn:btih:d61ec83e39d6e634676905555308f3e61b175430","amp;dn":"French.Cancan.1954.720p.BluRay.x264-CiNEFiLE.mkv","amp;tr":["udp%3A%2F%2Ftracker.openbittorrent.com%3A80","udp%3A%2F%2Fopen.demonii.com%3A1337","udp%3A%2F%2Ftracker.coppersurfer.tk%3A6969","udp%3A%2F%2Fexodus.desync.com%3A6969"],"infoHash":"d61ec83e39d6e634676905555308f3e61b175430","infoHashBuffer":{"type":"Buffer","data":[214,30,200,62,57,214,230,52,103,105,5,85,83,8,243,230,27,23,84,48]},"announce":[],"urlList":[]}}